<svg width="1567" height="366" viewBox="0 0 1567 366" fill="none" xmlns="http://www.w3.org/2000/svg">
<path d="M536.6 262V122H562.6V262H536.6ZM446.8 262V122H472.8V262H446.8ZM457.6 204.4V180H549.2V204.4H457.6ZM632.516 264C624.916 264 618.316 262.333 612.716 259C607.116 255.533 602.849 250.667 599.916 244.4C596.982 238 595.516 230.4 595.516 221.6V156.6H620.116V216.4C620.116 222 620.982 226.8 622.716 230.8C624.449 234.667 626.982 237.667 630.316 239.8C633.649 241.933 637.649 243 642.316 243C645.782 243 648.916 242.467 651.716 241.4C654.649 240.2 657.182 238.6 659.316 236.6C661.449 234.467 663.116 232 664.316 229.2C665.516 226.267 666.116 223.133 666.116 219.8V156.6H690.716V262H666.716L666.316 240L670.716 237.6C669.116 242.667 666.382 247.2 662.516 251.2C658.782 255.067 654.316 258.2 649.116 260.6C643.916 262.867 638.382 264 632.516 264ZM719.548 262V156.6H743.548L743.948 178.2L739.348 180.6C740.682 175.8 743.282 171.467 747.148 167.6C751.015 163.6 755.615 160.4 760.948 158C766.282 155.6 771.748 154.4 777.348 154.4C785.348 154.4 792.015 156 797.348 159.2C802.815 162.4 806.882 167.2 809.548 173.6C812.348 180 813.748 188 813.748 197.6V262H789.148V199.4C789.148 194.067 788.415 189.667 786.948 186.2C785.482 182.6 783.215 180 780.148 178.4C777.082 176.667 773.348 175.867 768.948 176C765.348 176 762.015 176.6 758.948 177.8C756.015 178.867 753.415 180.467 751.148 182.6C749.015 184.6 747.282 186.933 745.948 189.6C744.748 192.267 744.148 195.2 744.148 198.4V262H731.948C729.548 262 727.282 262 725.148 262C723.148 262 721.282 262 719.548 262ZM888.823 308C880.957 308 873.09 306.8 865.223 304.4C857.49 302 851.223 298.867 846.423 295L855.223 276.8C858.023 278.8 861.157 280.533 864.623 282C868.09 283.467 871.757 284.6 875.623 285.4C879.623 286.2 883.557 286.6 887.423 286.6C894.49 286.6 900.357 285.467 905.023 283.2C909.823 281.067 913.423 277.733 915.823 273.2C918.223 268.8 919.423 263.267 919.423 256.6V237.2L923.023 238.6C922.223 242.733 920.023 246.667 916.423 250.4C912.823 254.133 908.29 257.2 902.823 259.6C897.357 261.867 891.757 263 886.023 263C876.023 263 867.157 260.667 859.423 256C851.823 251.333 845.757 245 841.223 237C836.823 228.867 834.623 219.533 834.623 209C834.623 198.467 836.823 189.133 841.223 181C845.623 172.733 851.623 166.267 859.223 161.6C866.957 156.8 875.623 154.4 885.223 154.4C889.223 154.4 893.09 154.867 896.823 155.8C900.557 156.733 903.957 158.067 907.023 159.8C910.223 161.533 913.09 163.467 915.623 165.6C918.157 167.733 920.223 170 921.823 172.4C923.423 174.8 924.423 177.133 924.823 179.4L919.623 181L920.023 156.6H944.223V254.8C944.223 263.333 942.957 270.867 940.423 277.4C937.89 283.933 934.223 289.467 929.423 294C924.623 298.667 918.823 302.133 912.023 304.4C905.223 306.8 897.49 308 888.823 308ZM889.823 242C895.823 242 901.09 240.6 905.623 237.8C910.29 235 913.89 231.133 916.423 226.2C918.957 221.267 920.223 215.6 920.223 209.2C920.223 202.667 918.89 196.933 916.223 192C913.69 186.933 910.157 183 905.623 180.2C901.09 177.4 895.823 176 889.823 176C883.823 176 878.557 177.467 874.023 180.4C869.49 183.2 865.89 187.133 863.223 192.2C860.69 197.133 859.423 202.8 859.423 209.2C859.423 215.467 860.69 221.133 863.223 226.2C865.89 231.133 869.49 235 874.023 237.8C878.557 240.6 883.823 242 889.823 242ZM972.673 262V156.6H996.873L997.273 190.2L993.873 182.6C995.34 177.267 997.873 172.467 1001.47 168.2C1005.07 163.933 1009.21 160.6 1013.87 158.2C1018.67 155.667 1023.67 154.4 1028.87 154.4C1031.14 154.4 1033.27 154.6 1035.27 155C1037.41 155.4 1039.14 155.867 1040.47 156.4L1033.87 183.4C1032.41 182.6 1030.61 181.933 1028.47 181.4C1026.34 180.867 1024.21 180.6 1022.07 180.6C1018.74 180.6 1015.54 181.267 1012.47 182.6C1009.54 183.8 1006.94 185.533 1004.67 187.8C1002.41 190.067 1000.61 192.733 999.273 195.8C998.073 198.733 997.473 202.067 997.473 205.8V262H972.673ZM1072.85 308L1095.25 256.2L1095.45 272.6L1043.45 156.6H1071.85L1100.85 225.4C1101.79 227.133 1102.72 229.467 1103.65 232.4C1104.59 235.2 1105.39 238 1106.05 240.8L1101.05 242.4C1101.99 239.867 1102.99 237.2 1104.05 234.4C1105.12 231.467 1106.12 228.467 1107.05 225.4L1131.85 156.6H1160.45L1116.45 262L1098.45 308H1072.85ZM1270 262V122H1296V262H1270ZM1180.2 262V122H1206.2V262H1180.2ZM1191 204.4V180H1282.6V204.4H1191ZM1365.91 264C1358.31 264 1351.71 262.333 1346.11 259C1340.51 255.533 1336.25 250.667 1333.31 244.4C1330.38 238 1328.91 230.4 1328.91 221.6V156.6H1353.51V216.4C1353.51 222 1354.38 226.8 1356.11 230.8C1357.85 234.667 1360.38 237.667 1363.71 239.8C1367.05 241.933 1371.05 243 1375.71 243C1379.18 243 1382.31 242.467 1385.11 241.4C1388.05 240.2 1390.58 238.6 1392.71 236.6C1394.85 234.467 1396.51 232 1397.71 229.2C1398.91 226.267 1399.51 223.133 1399.51 219.8V156.6H1424.11V262H1400.11L1399.71 240L1404.11 237.6C1402.51 242.667 1399.78 247.2 1395.91 251.2C1392.18 255.067 1387.71 258.2 1382.51 260.6C1377.31 262.867 1371.78 264 1365.91 264ZM1511.15 264C1506.48 264 1501.88 263.333 1497.35 262C1492.95 260.533 1488.95 258.6 1485.35 256.2C1481.75 253.8 1478.75 251.133 1476.35 248.2C1473.95 245.133 1472.35 242.067 1471.55 239L1477.35 236.4L1476.75 261.6H1452.95V114H1477.55V181L1473.15 179C1473.81 175.8 1475.28 172.8 1477.55 170C1479.95 167.067 1482.88 164.467 1486.35 162.2C1489.81 159.8 1493.61 157.933 1497.75 156.6C1501.88 155.133 1506.08 154.4 1510.35 154.4C1519.81 154.4 1528.15 156.733 1535.35 161.4C1542.68 166.067 1548.41 172.533 1552.55 180.8C1556.81 189.067 1558.95 198.467 1558.95 209C1558.95 219.667 1556.88 229.133 1552.75 237.4C1548.61 245.667 1542.88 252.2 1535.55 257C1528.35 261.667 1520.21 264 1511.15 264ZM1505.95 242.4C1511.55 242.4 1516.55 241 1520.95 238.2C1525.35 235.267 1528.81 231.333 1531.35 226.4C1533.88 221.333 1535.15 215.533 1535.15 209C1535.15 202.6 1533.88 196.933 1531.35 192C1528.95 187.067 1525.55 183.2 1521.15 180.4C1516.75 177.6 1511.68 176.2 1505.95 176.2C1500.21 176.2 1495.15 177.6 1490.75 180.4C1486.35 183.2 1482.88 187.067 1480.35 192C1477.81 196.933 1476.55 202.6 1476.55 209C1476.55 215.533 1477.81 221.333 1480.35 226.4C1482.88 231.333 1486.35 235.267 1490.75 238.2C1495.15 241 1500.21 242.4 1505.95 242.4Z" fill="#3C0606"/>
<path fill-rule="evenodd" clip-rule="evenodd" d="M366 183C366 284.068 284.068 366 183 366C81.9319 366 0 284.068 0 183C0 81.9319 81.9319 0 183 0C284.068 0 366 81.9319 366 183ZM161.63 63.3704L160.651 109.868C160.651 111.702 159.408 114.074 157.072 114.074H155.82C153.484 114.074 152.241 111.469 152.241 109.586L148.502 63.0043C147.546 63.0087 146.567 63.0087 145.545 63.0087C144.626 63.0087 143.738 63.0064 142.877 63.0042L142.873 63.0041H142.873C142.061 63.002 141.273 63 140.506 63L136.768 110.225C136.781 111.931 135.534 114.073 133.197 114.073H131.945C129.609 114.073 128.366 111.468 128.366 109.586L127.396 63.5548C115 65.507 115 74.2035 115 112.288V112.328C115 125.186 120.109 136.383 129.234 142.4C130.481 143.225 131.8 143.952 133.197 144.573C134.581 145.186 136.045 145.68 137.57 146.072L133.378 306.364C133.378 309.71 140.502 312.443 143.848 312.443H149.358C152.704 312.443 159.827 309.719 159.827 306.373L155.622 145.481C157.16 144.957 158.602 144.282 159.982 143.524C161.679 142.594 163.248 141.496 164.694 140.249C172.029 133.914 176.094 123.784 176.094 112.331C176.094 72.7952 175.331 64.9089 161.63 63.3704ZM218.358 309C202.335 309 180 276.439 180 246.472C180 221.006 192.405 208.6 209.131 205.446L206.067 75.414C205.907 68.605 211.456 63 218.358 63C225.26 63 230.809 68.605 230.648 75.414L227.584 205.446C244.311 208.6 256.716 221.006 256.716 246.472C256.716 276.439 235.352 309 218.358 309Z" fill="#FF791A"/>
</svg>
